<?xml version="1.0" encoding="iso-8859-1"?>
<!-- Generator: Adobe Illustrator 19.0.0, SVG Export Plug-In . SVG Version: 6.00 Build 0)  -->
<svg version="1.1" id="Capa_1" xmlns="http://www.w3.org/2000/svg" xmlns:xlink="http://www.w3.org/1999/xlink" x="0px" y="0px"
	 viewBox="0 0 512 512" style="enable-background:new 0 0 512 512;" xml:space="preserve">
<g>
	<g>
		<path d="M497,0h-90c-24.814,0-45,20.186-45,45c0,24.814,20.186,45,45,45h15c16.538,0,30,13.462,30,30
			c0,9.996-5.237,18.433-12.779,23.888c5.634,8.443,10.615,17.329,15.227,26.439C470.981,159.631,482,141.119,482,120
			c0-33.091-26.909-60-60-60h-15c-8.276,0-15-6.724-15-15s6.724-15,15-15h90c8.291,0,15-6.709,15-15S505.291,0,497,0z"/>
	</g>
</g>
<g>
	<g>
		<path d="M195.191,272.986c-8.743,12.006-16.318,24.869-22.581,38.5c47.018,16.791,86.129,51.021,108.779,96.165
			c13.991,27.889,20.629,59.129,20.363,89.947c7.17-2.556,14.284-5.248,21.136-8.498C328.675,472.085,332,453.248,332,435
			C332,354.426,273.655,286.558,195.191,272.986z"/>
	</g>
</g>
<g>
	<g>
		<path d="M259.357,213.569c-15.298,9.437-29.5,20.475-42.089,33.181C301.381,269.112,362,345.63,362,435
			c0,10.573-1.073,22.008-2.745,32.322c3.432-2.501,6.629-6.301,9.917-8.989C383.894,433.184,392,404.421,392,375
			C392,295.715,336.449,228.911,259.357,213.569z"/>
	</g>
</g>
<g>
	<g>
		<path d="M392.573,133.172C368.42,124.528,343.111,120,317,120C192.928,120,92,220.928,92,345
			c0,45.753,14.112,90.581,39.335,127.553C125.516,451.002,122,427.769,122,405c0-139.79,114.662-255,255-255
			c10.486,0,20.832,0.773,31.08,2.012C403.244,145.448,398.075,139.167,392.573,133.172z"/>
	</g>
</g>
<g>
	<g>
		<path d="M254.568,421.113c-19.292-38.45-52.681-67.531-92.774-81.643C155.464,360.22,152,382.207,152,405
			c0,34.556,7.775,69.095,22.689,99.611C191.507,508.638,208.964,512,227,512c15.178,0,29.971-2.084,44.511-5.065
			C273.216,477.822,267.67,447.211,254.568,421.113z"/>
	</g>
</g>
<g>
	<g>
		<path d="M428.801,186.121C411.958,182.146,394.672,180,377,180c-27.413,0-53.58,5.171-77.895,14.187
			C372.109,223.07,422,293.405,422,375c0,8.52-1.086,16.924-2.192,25.313c6.806-11.311,12.937-23.099,17.705-35.699
			c4.043-10.693,7.28-21.768,9.639-32.944C450.374,316.392,452,300.688,452,285C452,249.494,443.509,216.013,428.801,186.121z"/>
	</g>
</g>
<g>
	<g>
		<path d="M227,60C102.928,60,0,160.928,0,285c0,73.502,37.583,139.679,92.253,180.764C72.809,429.293,62,387.394,62,345
			C62,204.39,176.39,90,317,90c8.04,0,15.98,0.553,23.884,1.284C307.429,71.539,268.583,60,227,60z"/>
	</g>
</g>
<g>
</g>
<g>
</g>
<g>
</g>
<g>
</g>
<g>
</g>
<g>
</g>
<g>
</g>
<g>
</g>
<g>
</g>
<g>
</g>
<g>
</g>
<g>
</g>
<g>
</g>
<g>
</g>
<g>
</g>
</svg>
